<?xml version="1.0" encoding="UTF-8" standalone="no"?>
<!-- Created with Inkscape (http://www.inkscape.org/) -->

<svg
   xmlns:dc="http://purl.org/dc/elements/1.1/"
   xmlns:cc="http://creativecommons.org/ns#"
   xmlns:rdf="http://www.w3.org/1999/02/22-rdf-syntax-ns#"
   xmlns:svg="http://www.w3.org/2000/svg"
   xmlns="http://www.w3.org/2000/svg"
   xmlns:sodipodi="http://sodipodi.sourceforge.net/DTD/sodipodi-0.dtd"
   xmlns:inkscape="http://www.inkscape.org/namespaces/inkscape"
   width="744.09448819"
   height="1052.3622047"
   id="svg2"
   version="1.1"
   inkscape:version="0.48.4 r9939"
   sodipodi:docname="New document 1">
  <defs
     id="defs4" />
  <sodipodi:namedview
     id="base"
     pagecolor="#ffffff"
     bordercolor="#666666"
     borderopacity="1.0"
     inkscape:pageopacity="0.0"
     inkscape:pageshadow="2"
     inkscape:zoom="0.98994949"
     inkscape:cx="128.95175"
     inkscape:cy="712.94572"
     inkscape:document-units="px"
     inkscape:current-layer="layer1"
     showgrid="false"
     inkscape:window-width="757"
     inkscape:window-height="890"
     inkscape:window-x="857"
     inkscape:window-y="16"
     inkscape:window-maximized="0" />
  <metadata
     id="metadata7">
    <rdf:RDF>
      <cc:Work
         rdf:about="">
        <dc:format>image/svg+xml</dc:format>
        <dc:type
           rdf:resource="http://purl.org/dc/dcmitype/StillImage" />
        <dc:title></dc:title>
      </cc:Work>
    </rdf:RDF>
  </metadata>
  <g
     inkscape:label="Layer 1"
     inkscape:groupmode="layer"
     id="layer1">
    <path
       style="fill:#000000;fill-opacity:1;stroke:none"
       d="m 44.014112,22.787241 c -10.668297,0 -19.310617,8.64232 -19.310617,19.31062 0,10.6683 8.64232,19.3247 19.310617,19.3247 4.75693,0 9.11151,-1.72453 12.47936,-4.57764 l 21.84594,18.64862 c 0.59975,0.51167 1.50249,0.44482 2.01416,-0.15493 l 0.85919,-1.01413 c 0.51167,-0.59976 0.44482,-1.4884 -0.15494,-2.00008 l -21.69099,-18.50777 c 2.48514,-3.25167 3.97198,-7.31258 3.97198,-11.71877 0,-10.6683 -8.6564,-19.31062 -19.3247,-19.31062 z m 0.12677,4.63399 c 8.17902,0 14.81748,6.63845 14.81748,14.81748 0,8.17903 -6.63846,14.8034 -14.81748,14.8034 -8.179027,0 -14.803397,-6.62437 -14.803397,-14.8034 0,-8.17903 6.62437,-14.81748 14.803397,-14.81748 z"
       id="path2985"
       inkscape:connector-curvature="0" />
  </g>
</svg>
